<svg id="Layer_1" data-name="Layer 1" xmlns="http://www.w3.org/2000/svg" xmlns:xlink="http://www.w3.org/1999/xlink" viewBox="0 0 2180.21 2546.28"><defs><style>.cls-1{fill:url(#linear-gradient);}.cls-2{fill:url(#linear-gradient-2);}.cls-14,.cls-3{fill:none;}.cls-3{clip-rule:evenodd;}.cls-4{clip-path:url(#clip-path);}.cls-5{fill:url(#linear-gradient-3);}.cls-6{clip-path:url(#clip-path-2);}.cls-7{fill:url(#linear-gradient-4);}.cls-8{clip-path:url(#clip-path-3);}.cls-9{fill:url(#linear-gradient-5);}.cls-10{clip-path:url(#clip-path-4);}.cls-11{fill:url(#linear-gradient-6);}.cls-12{mask:url(#mask);}.cls-13{fill:#990038;}.cls-13,.cls-36{fill-rule:evenodd;}.cls-14{stroke:#231916;stroke-miterlimit:22.93;stroke-width:0.57px;}.cls-15{clip-path:url(#clip-path-5);}.cls-16{fill:url(#linear-gradient-7);}.cls-17{clip-path:url(#clip-path-6);}.cls-18{fill:url(#linear-gradient-8);}.cls-19{clip-path:url(#clip-path-7);}.cls-20{fill:url(#linear-gradient-9);}.cls-21{clip-path:url(#clip-path-8);}.cls-22{fill:url(#linear-gradient-10);}.cls-23{clip-path:url(#clip-path-9);}.cls-24{fill:url(#linear-gradient-11);}.cls-25{clip-path:url(#clip-path-10);}.cls-26{fill:url(#linear-gradient-12);}.cls-27{clip-path:url(#clip-path-11);}.cls-28{fill:url(#linear-gradient-13);}.cls-29{clip-path:url(#clip-path-12);}.cls-30{fill:url(#linear-gradient-14);}.cls-31{clip-path:url(#clip-path-13);}.cls-32{fill:url(#linear-gradient-15);}.cls-33{clip-path:url(#clip-path-14);}.cls-34{fill:url(#linear-gradient-16);}.cls-35{mask:url(#mask-2);}.cls-36{fill:#102770;}.cls-37{fill:#231916;}</style><linearGradient id="linear-gradient" x1="-417.28" y1="2752.08" x2="-1339.33" y2="1550.91" gradientTransform="translate(2282.22 -226.23)" gradientUnits="userSpaceOnUse"><stop offset="0" stop-color="#fff"/><stop offset="1"/></linearGradient><linearGradient id="linear-gradient-2" x1="-1234.23" y1="2579.37" x2="355.69" y2="1612.44" gradientTransform="translate(2422.35 -597.88)" xlink:href="#linear-gradient"/><clipPath id="clip-path" transform="translate(-910.35 -751.72)"><path class="cls-3" d="M1540.56,2678.25c385.72-89.44,592.87-278.66,677-538.61-118.32,16.18-171.82,42.79-223.63,52.31-97.16,238.16-294.39,398.58-453.33,486.3"/></clipPath><linearGradient id="linear-gradient-3" x1="1072.38" y1="1579.04" x2="396.85" y2="2088.39" gradientUnits="userSpaceOnUse"><stop offset="0" stop-color="#00478f"/><stop offset="1" stop-color="#29c4ff"/></linearGradient><clipPath id="clip-path-2" transform="translate(-910.35 -751.72)"><path class="cls-3" d="M1699.19,2837.78c352-181.32,506.41-415.57,524.18-688.2-110.74,44.7-156.08,83.63-204,105.56-35.78,254.71-187.64,458.61-320.21,582.64"/></clipPath><linearGradient id="linear-gradient-4" x1="1179.23" y1="1570.7" x2="620.75" y2="2316.15" xlink:href="#linear-gradient-3"/><clipPath id="clip-path-3" transform="translate(-910.35 -751.72)"><path class="cls-3" d="M1931.94,2902c243.14-224.74,315.24-448,268.65-671.66-79.25,60.77-107.09,102.26-140.78,130.63,28.07,213.24-48.75,411.48-127.87,541"/></clipPath><linearGradient id="linear-gradient-5" x1="1242.85" y1="1566.46" x2="1078.19" y2="2208.13" xlink:href="#linear-gradient-3"/><clipPath id="clip-path-4" transform="translate(-910.35 -751.72)"><path class="cls-3" d="M1072,1526.35c133.7-622.8,962.66,167.09,1084.05,401.22,0,0,269.14,533.3-69.78,952,224.69-463-147-662.16-477.11-779.91-368.35-131.4-312.55-403.89-442.09-469.35-64-32.37-132.12,0-168.58,65.54-9.68-57.31-4.52-101.55,73.51-169.46"/></clipPath><linearGradient id="linear-gradient-6" x1="717.29" y1="271.08" x2="816.98" y2="1362.59" gradientUnits="userSpaceOnUse"><stop offset="0" stop-color="#ffce4b"/><stop offset="1" stop-color="#d3226f"/></linearGradient><mask id="mask" x="88.12" y="771.18" width="1184.85" height="1291.88" maskUnits="userSpaceOnUse"><g transform="translate(-910.35 -751.72)"><rect class="cls-1" x="998.47" y="1522.9" width="1184.85" height="1291.88"/></g></mask><clipPath id="clip-path-5" transform="translate(-910.35 -751.72)"><path class="cls-3" d="M1781.52,2153.92c79.93-197.39,60.72-347.06-27.66-464.45-29.47,57.07-52.37,105.74-64.21,131.48,52.85,135.45,88.83,272.6,91.87,333"/></clipPath><linearGradient id="linear-gradient-7" x1="860" y1="1121.41" x2="902.48" y2="1518.14" gradientUnits="userSpaceOnUse"><stop offset="0" stop-color="#00478f"/><stop offset="1" stop-color="#51f4e9"/></linearGradient><clipPath id="clip-path-6" transform="translate(-910.35 -751.72)"><path class="cls-3" d="M1933.57,2183.49c81.25-288.12,31.35-494.28-110.24-644.69-32.38,84.29-56.88,155.81-69.45,193.61,94.73,181.11,166.14,367.19,179.69,451.08"/></clipPath><linearGradient id="linear-gradient-8" x1="960.2" y1="1011.02" x2="1049.04" y2="1644.51" xlink:href="#linear-gradient-3"/><clipPath id="clip-path-7" transform="translate(-910.35 -751.72)"><path class="cls-3" d="M2153.46,2176.16c43.16-328.28-44.21-546-223.08-688.14-22.05,97.4-46.7,162.16-54.45,205.53,132.45,183.19,249.37,392.94,277.53,482.61"/></clipPath><linearGradient id="linear-gradient-9" x1="978.3" y1="786.49" x2="1296.16" y2="1419.25" gradientUnits="userSpaceOnUse"><stop offset="0" stop-color="#003780"/><stop offset="1" stop-color="#b222d3"/></linearGradient><clipPath id="clip-path-8" transform="translate(-910.35 -751.72)"><path class="cls-3" d="M2325.19,2166.19c59.23-373.42-72.19-593.89-322.93-722-19.36,35.66-37.41,70.24-53.69,102.26,176.24,206.44,344,505.19,376.62,619.7"/></clipPath><linearGradient id="linear-gradient-10" x1="1270.45" y1="1063.03" x2="1671.3" y2="1330.68" gradientUnits="userSpaceOnUse"><stop offset="0" stop-color="#4e046d"/><stop offset="1" stop-color="#ff8bc7"/></linearGradient><clipPath id="clip-path-9" transform="translate(-910.35 -751.72)"><path class="cls-3" d="M2656.18,2049.75c-71.62-430-308.4-603.66-644.9-629-14.45,26.14-28.21,51.85-41.1,76.51,269.36,135.47,604.92,434,686,552.49"/></clipPath><linearGradient id="linear-gradient-11" x1="1099.89" y1="711.6" x2="1913.14" y2="1441.59" xlink:href="#linear-gradient-10"/><clipPath id="clip-path-10" transform="translate(-910.35 -751.72)"><path class="cls-3" d="M2950,1843C2730.35,1402,2421,1278.64,2054,1346c-22.1,37.42-43.2,75.26-62.75,111.64C2341.44,1519,2818.37,1738,2950,1843"/></clipPath><linearGradient id="linear-gradient-12" x1="1474.56" y1="765.46" x2="2085.88" y2="1076.86" gradientUnits="userSpaceOnUse"><stop offset="0" stop-color="#b91c58"/><stop offset="1" stop-color="#f95c97"/></linearGradient><clipPath id="clip-path-11" transform="translate(-910.35 -751.72)"><path class="cls-3" d="M3088.06,1592.56c-287.92-404.27-615.43-476-970.41-348.39-25,37.38-49.46,77.21-72.75,117.24,356.47-3.73,891.71,145,1043.16,231.15"/></clipPath><linearGradient id="linear-gradient-13" x1="1314.03" y1="539.02" x2="2315.84" y2="725.92" gradientUnits="userSpaceOnUse"><stop offset="0" stop-color="#b91c58"/><stop offset="1" stop-color="#ff8bc7"/></linearGradient><clipPath id="clip-path-12" transform="translate(-910.35 -751.72)"><path class="cls-3" d="M3029.59,1308.53c-291.15-295.59-570.87-309-846.93-153.78-26.2,32.58-52.54,69.9-78.22,109.46,287.2-62.81,783.35-8.72,925.15,44.32"/></clipPath><linearGradient id="linear-gradient-14" x1="2069.93" y1="474.74" x2="1383.13" y2="354.38" xlink:href="#linear-gradient-6"/><clipPath id="clip-path-13" transform="translate(-910.35 -751.72)"><path class="cls-3" d="M1910.28,1636c191-324.25,410.82-744.41,990.89-802.42C2309.7,751.72,1962.51,1177.24,1703.63,1476c-185.07,213.56-325,362.34-476.8,214.65,50.35,84,75,222.67,225.44,329.48,210,14.72,327.29-162.25,458-384.13"/></clipPath><linearGradient id="linear-gradient-15" x1="872.52" y1="1358.53" x2="1293.68" y2="284.45" gradientUnits="userSpaceOnUse"><stop offset="0" stop-color="#00478f"/><stop offset="1" stop-color="#c11fda"/></linearGradient><clipPath id="clip-path-14" transform="translate(-910.35 -751.72)"><path class="cls-3" d="M3090.56,1062.83c-309-219.3-579-116.31-579-116.31-148.53,78-261.79,187.27-355.19,306.42,132.29-166.74,771.76-220,934.23-190.11"/></clipPath><linearGradient id="linear-gradient-16" x1="2083.11" y1="333.05" x2="1124.32" y2="238.37" xlink:href="#linear-gradient-6"/><mask id="mask-2" x="387.43" y="81.77" width="1603.39" height="1187.48" maskUnits="userSpaceOnUse"><g transform="translate(-910.35 -751.72)"><rect class="cls-2" x="1297.78" y="833.5" width="1603.39" height="1187.48"/></g></mask></defs><title>logo</title><g class="cls-4"><rect class="cls-5" x="630.21" y="1387.92" width="676.97" height="538.61"/></g><g class="cls-6"><rect class="cls-7" x="788.84" y="1397.85" width="524.18" height="688.2"/></g><g class="cls-8"><rect class="cls-9" x="1021.59" y="1478.64" width="315.24" height="671.66"/></g><g class="cls-10"><rect class="cls-11" x="78.44" y="151.83" width="1436.39" height="1975.98"/></g><g class="cls-12"><path class="cls-13" d="M2114.49,2814.79c160.9-417.13-191.06-603.06-505.35-715.17-368.35-131.4-312.55-403.89-442.09-469.35-64-32.37-132.12,0-168.58,65.54,0,0,131-423.7,666.57,55.42,0,0,743.57,333.06,449.45,1063.56" transform="translate(-910.35 -751.72)"/></g><path class="cls-14" d="M1226.83,1690.63c364.11,354.28,660-997.41,1674.34-857.07-977,97.7-931.95,1222.78-1448.9,1186.55" transform="translate(-910.35 -751.72)"/><g class="cls-15"><rect class="cls-16" x="779.3" y="937.75" width="171.8" height="464.45"/></g><g class="cls-17"><rect class="cls-18" x="843.54" y="787.08" width="260.93" height="644.68"/></g><g class="cls-19"><rect class="cls-20" x="965.58" y="736.3" width="320.69" height="688.14"/></g><g class="cls-21"><rect class="cls-22" x="1038.22" y="692.5" width="435.85" height="721.97"/></g><g class="cls-23"><rect class="cls-24" x="1059.83" y="669.03" width="686" height="629"/></g><g class="cls-25"><rect class="cls-26" x="1080.85" y="526.92" width="958.83" height="564.39"/></g><g class="cls-27"><rect class="cls-28" x="1134.55" y="364.86" width="1043.16" height="475.98"/></g><g class="cls-29"><rect class="cls-30" x="1194.1" y="247.82" width="925.14" height="308.99"/></g><g class="cls-31"><rect class="cls-32" x="316.48" width="1674.34" height="1283.11"/></g><g class="cls-33"><rect class="cls-34" x="1245.98" y="91.8" width="934.23" height="409.42"/></g><g class="cls-35"><path class="cls-36" d="M1823.33,1538.8c-331.44,510.57-525.55,299.94-525.55,299.94,31.54,60.92,75.82,125.5,154.49,181.37,210,14.72,327.29-162.25,458-384.13,191-324.25,410.82-744.41,990.89-802.42-675.26-8.06-1077.84,705.24-1077.84,705.24" transform="translate(-910.35 -751.72)"/></g><path class="cls-37" d="M2900.31,3293.12h16.18v-214h-20.15l-80.88,124.68-81.79-124.68h-19.54v214h16.48V3103L2813,3228.31h5.49l81.8-125.29Zm-247.52-214v132.77c0,91.56-131.24,91.87-131.24,0V3079.16h-16.18v132.77c0,112,163.59,111.71,163.59,0V3079.16Zm-188.62,33.58c-21.06-31.44-47.62-36.32-78.14-36.32-35.1,0-82.1,14-81.18,59.21,0,39.37,40,47.31,79.05,54.94,35.1,6.71,70.5,13.73,70.2,45.78,0,37.84-41.82,45.17-68.07,45.17s-59.82-12.82-72.94-38.76l-14.65,7.32c16.48,32.66,54.33,46.39,87.59,46.39,35.71,0,84.24-11.59,84.55-59.82,0-46.08-42.73-53.41-83.94-61.34-36-6.72-65.31-13.13-65.31-40.29,0-34.19,39.68-43.34,64.7-43.34,24.12.3,49.14,4,64.71,29Zm-257.9,106.52c92.78,0,92.78-140.1,0-140.1h-93.7v214h16.48v-73.86Zm0-124.83c71.11,0,71.11,109.87,0,109.87h-77.22V3094.43Zm-140.71,198.69v-214h-16.17v214Zm-160.84,0H1945V3079.78h-46.09l-66.84,91.71-66.84-91.71h-46.39v213.34h40.29V3138L1827.2,3231h7.93l69.59-92.64Zm-217.31-39.68h-120v-48.22h115.68v-37.54H1567.46v-49.45h120v-39.07H1527.48v214h159.93ZM1424,3116.71c25.33,0,36.62,17.14,36.62,34.33s-11,34.34-36.62,34.34h-61.35v-68.67Zm87.59,173.66-64.7-72.95c40.59-8.24,54-37.84,54-67.29,0-37.09-26.55-70.66-76.91-71-33.88.31-67.76,0-101.64,0v214h40.29V3221.7h38.76l62.26,71.42h47.92ZM1182.9,3111.82c50.36,0,70.5,40.29,69.89,76.3-.61,35.1-19.53,73-69.89,73s-69.28-37.54-70.2-72.64C1111.79,3152.42,1132.54,3111.82,1182.9,3111.82Zm0-36.62c-73.86,0-109.87,56.46-109.87,112.62S1107.82,3298,1182.9,3298s109-55.24,109.57-110.49C1293.08,3131.66,1256.46,3075.2,1182.9,3075.2Zm-272.55,4v214h150.16v-37.24H950.64V3079.16Z" transform="translate(-910.35 -751.72)"/></svg>